<svg width="22" height="22" viewBox="0 0 22 22" fill="none" xmlns="http://www.w3.org/2000/svg">
<g clip-path="url(#clip0_27_1666)">
<path d="M11 6.90125C12.335 6.90125 12.4933 6.90625 13.0208 6.93042C14.3758 6.99208 15.0087 7.635 15.0704 8.98C15.0946 9.50708 15.0992 9.66542 15.0992 11.0004C15.0992 12.3358 15.0942 12.4938 15.0704 13.0208C15.0083 14.3646 14.3771 15.0087 13.0208 15.0704C12.4933 15.0946 12.3358 15.0996 11 15.0996C9.665 15.0996 9.50667 15.0946 8.97958 15.0704C7.62125 15.0083 6.99167 14.3625 6.93 13.0204C6.90583 12.4933 6.90083 12.3354 6.90083 11C6.90083 9.665 6.90625 9.50708 6.93 8.97958C6.99208 7.635 7.62333 6.99167 8.97958 6.93C9.50708 6.90625 9.665 6.90125 11 6.90125V6.90125ZM11 6C9.64208 6 9.47208 6.00583 8.93875 6.03C7.12292 6.11333 6.11375 7.12083 6.03042 8.93833C6.00583 9.47208 6 9.64208 6 11C6 12.3579 6.00583 12.5283 6.03 13.0617C6.11333 14.8775 7.12083 15.8867 8.93833 15.97C9.47208 15.9942 9.64208 16 11 16C12.3579 16 12.5283 15.9942 13.0617 15.97C14.8758 15.8867 15.8875 14.8792 15.9696 13.0617C15.9942 12.5283 16 12.3579 16 11C16 9.64208 15.9942 9.47208 15.97 8.93875C15.8883 7.12458 14.8796 6.11375 13.0621 6.03042C12.5283 6.00583 12.3579 6 11 6V6ZM11 8.4325C9.58208 8.4325 8.4325 9.58208 8.4325 11C8.4325 12.4179 9.58208 13.5679 11 13.5679C12.4179 13.5679 13.5675 12.4183 13.5675 11C13.5675 9.58208 12.4179 8.4325 11 8.4325ZM11 12.6667C10.0796 12.6667 9.33333 11.9208 9.33333 11C9.33333 10.0796 10.0796 9.33333 11 9.33333C11.9204 9.33333 12.6667 10.0796 12.6667 11C12.6667 11.9208 11.9204 12.6667 11 12.6667ZM13.6692 7.73125C13.3375 7.73125 13.0687 8 13.0687 8.33125C13.0687 8.6625 13.3375 8.93125 13.6692 8.93125C14.0004 8.93125 14.2687 8.6625 14.2687 8.33125C14.2687 8 14.0004 7.73125 13.6692 7.73125Z" fill="#1D428A"/>
</g>
<defs>
<clipPath id="clip0_27_1666">
<rect width="10" height="10" fill="white" transform="translate(6 6)"/>
</clipPath>
</defs>
</svg>
