<svg width="21" height="22" viewBox="0 0 21 22" fill="none" xmlns="http://www.w3.org/2000/svg">
<path d="M14.8 7.86164C14.4728 8.00777 14.1241 8.10463 13.7605 8.15165C14.1345 7.92435 14.42 7.56715 14.5542 7.13661C14.2055 7.34824 13.8205 7.49773 13.4102 7.58115C13.0791 7.22227 12.6072 7 12.0924 7C11.0936 7 10.2895 7.82525 10.2895 8.83694C10.2895 8.9825 10.3016 9.12247 10.3313 9.25572C8.8314 9.18126 7.50425 8.44951 6.6127 7.3348C6.45705 7.6097 6.36575 7.92435 6.36575 8.26307C6.36575 8.89908 6.6875 9.46287 7.1671 9.78928C6.87725 9.78368 6.5929 9.69802 6.352 9.56309C6.352 9.56869 6.352 9.57597 6.352 9.58325C6.352 10.4757 6.97735 11.2169 7.7974 11.3877C7.65055 11.4286 7.4905 11.4482 7.3244 11.4482C7.2089 11.4482 7.0923 11.4415 6.98285 11.4168C7.2166 12.1441 7.8799 12.6788 8.6686 12.6961C8.0548 13.1849 7.27545 13.4794 6.43175 13.4794C6.2838 13.4794 6.1419 13.4727 6 13.4542C6.79915 13.9788 7.74625 14.2783 8.7676 14.2783C12.0874 14.2783 13.9024 11.479 13.9024 9.05249C13.9024 8.97131 13.8997 8.89292 13.8958 8.8151C14.2539 8.55644 14.5547 8.2334 14.8 7.86164Z" fill="#1D428A"/>
</svg>
