<svg width="25" height="22" viewBox="0 0 25 22" fill="none" xmlns="http://www.w3.org/2000/svg">
<path d="M17.8873 8.31278C17.758 7.83102 17.3769 7.4516 16.8932 7.32284C16.0163 7.08887 12.5 7.08887 12.5 7.08887C12.5 7.08887 8.98381 7.08887 8.1069 7.32284C7.62311 7.45162 7.24209 7.83102 7.11277 8.31278C6.87781 9.186 6.87781 11.0079 6.87781 11.0079C6.87781 11.0079 6.87781 12.8298 7.11277 13.703C7.24209 14.1847 7.62311 14.5483 8.1069 14.6771C8.98381 14.9111 12.5 14.9111 12.5 14.9111C12.5 14.9111 16.0162 14.9111 16.8932 14.6771C17.3769 14.5483 17.758 14.1847 17.8873 13.703C18.1223 12.8298 18.1223 11.0079 18.1223 11.0079C18.1223 11.0079 18.1223 9.186 17.8873 8.31278ZM11.35 12.662V9.35375L14.2889 11.0079L11.35 12.662Z" fill="#1D428A"/>
</svg>
